<svg version="1" xmlns="http://www.w3.org/2000/svg" width="933.333" height="933.333" viewBox="0 0 700.000000 700.000000"><path d="M341.1 2.1C333 5.8 328 13.1 327.5 22c-.5 8.4 2.7 14.6 10.3 19.6 5 3.4 6.3 3.8 12.2 3.8 8.2.1 14.3-3.2 18.8-10 4.1-6.1 5-12.1 2.7-19.2-4-13-18.4-19.6-30.4-14.1zM245.2 33.3c-2.7 1.2-5.5 3.7-7.5 6.6-2.7 3.9-3.2 5.5-3.2 10.6.1 20.7 23.6 27.4 35 10 3-4.6 2.8-14.9-.5-19.5-6.2-8.8-15.3-11.8-23.8-7.7zM440.3 33c-12.7 5.8-16.4 21.4-7.1 30.9 4.5 4.6 8.5 6.4 14.4 6.5 13.4.2 21.9-14.9 16-28-4.2-9.2-14.5-13.4-23.3-9.4zM345.6 57.1c-1.6 1.2-2.7 3.4-3.1 6.2-.4 2.3-.9 4.9-1.1 5.7-.1.8-1.2 5.9-2.3 11.2-7 33.2-13.2 47.8-20.4 47.8-5.7 0-21.8-17.4-36.9-39.8-2.7-4.1-5.8-8.2-6.9-9.3-4.2-4.2-13-.5-13.1 5.6 0 1.6.7 6.1 1.6 10 1.8 8.2 2.5 12.4 4.5 27.5 1.3 9.8.7 22-1.4 26.3-1.7 3.6-1.9 3.7-5.8 3.2-9.9-1.5-30.9-13.2-51.7-29-3.1-2.3-6.5-4.4-7.7-4.7-2.8-.7-8.1 2.5-8.8 5.4-.5 2.1 3.7 12.8 15.2 38.8 1.1 2.5 3.1 7.1 4.3 10.2l2.4 5.8 7 .1c11.3 0 18.4.9 28.6 3.6 36.2 9.3 68.1 37.3 81.2 71.3l2.3 6h16.8c12.1 0 16.7-.3 16.7-1.2 0-1.9 6.1-14.8 10.4-21.8 17.2-28.6 44-47.9 77.1-55.6 3-.7 16.4-2.4 21.3-2.6l4.3-.3 3.8-9c4.7-11.3 8.5-18.2 17.2-31.5 3.8-5.7 6.9-11.3 6.9-12.3s-1.3-3.1-2.8-4.7c-3.6-3.5-5.9-3.2-13.2 2-30.5 21.5-48.7 31.1-55.5 29.4-6.8-1.7-6.8-22.2.1-56.9.9-4.4 1.6-9.1 1.6-10.4.1-3-4.4-7.1-7.7-7.1-4.1 0-5.5 1.1-9.7 7.4-18.5 27.4-33.5 43.6-40.5 43.6-5.5 0-13-17.4-18.4-42.5-.7-3.3-1.3-6.2-1.4-6.5-.1-.3-.5-2.5-1-5s-.9-4.7-1-5c0-.3-.4-2.6-.8-5.2-.9-5.1-2-6.5-6.6-7.8-2.4-.7-3.5-.4-5.5 1.1zM174.5 93.7c-3 .7-6.3 4.2-7.5 7.8-2.8 8.4 3.6 17.5 12.2 17.5 6.5 0 12.4-7.4 11.5-14.5-.9-8.8-7.2-13-16.2-10.8zM514.9 94.5c-1.5.8-3.4 3-4.3 4.9-5.5 11.5 4.8 23.3 15.8 18.1 6.6-3.1 9.2-11.8 5.5-18.6-2.7-5.1-11.5-7.4-17-4.4z"/><path d="M211 192.8c-3.1.2-9.7 1.4-16.8 2.8-4.3.9-13.7 4.6-21.8 8.6-24.1 12-43.2 34-51.8 60-1.3 4-2.7 9-3 11.2-.4 2.1-.9 4.3-1.2 4.8-1 1.6-1.3 24.8-.4 30.3.5 2.7 1.2 6.8 1.5 9 1.6 9.6 7.4 23.7 14 34l3.2 5.1-4.9 5.3c-8.1 8.8-25.8 33.3-25.8 35.6 0 .3-1 2.2-2.3 4.3-9 14.4-18.9 46.5-20.2 65.3l-.3 4.7 25.6 8.6c23.6 7.8 63 19.6 65.8 19.6.6 0 3.4.7 6 1.5 8.2 2.5 42.7 10.1 58.4 12.9 1.4.2 5.2.9 8.5 1.5s7.6 1.2 9.5 1.5c1.9.2 4.6.7 6 1 1.4.3 4.8.7 7.5 1 4.4.5 13.6 1.6 25.5 3.1 1.9.2 7.8.7 13 1.1 5.2.3 11.8.8 14.5 1 6.2.4 49 .4 56.5 0 10.2-.7 23.5-1.7 27-2.1 1.9-.3 6-.7 9-1 8.3-.8 33.8-4.4 39.5-5.5 2.8-.6 6.4-1.2 8-1.5 3.1-.5 17.4-3.1 21-3.9 38.3-8.1 72.2-17.4 113.8-31.3l22.8-7.7-.6-4.5c-.3-2.5-.8-6.2-1-8.1-.5-4-.8-5.5-3-15.5-5.3-25.1-24.1-59.7-44.2-81.4l-5-5.5 4.3-6.8c6.6-10.7 12.3-26.5 14.2-39.3.8-5.8.8-26.2-.1-31.5-3.6-21.4-14.6-42.8-29.2-57-9.2-8.9-8.4-8.3-16.1-13.5-32.3-21.7-74.6-23.9-108.3-5.7-23.2 12.5-42.2 35-50.5 59.7-1.5 4.4-3.1 8.2-3.6 8.5-.5.3-4 .3-7.8 0-7.2-.5-25.7-.5-37.7 0l-7 .4-2.6-7.5c-11.3-32.5-35-56.8-65.9-67.7-13.2-4.6-29.7-6.6-44-5.4zm22.4 52.2c19.3 4.3 35.4 20.7 40 40.4 3.2 13.7-.5 32-8.9 43.5-.5.7-3.5 3.9-6.5 7-9.4 9.8-20.9 15.1-34 15.7-23.1 1.1-43.2-11.4-52.9-32.7-18.3-40.4 18.4-83.9 62.3-73.9zm260.5.6c31.4 9.1 47.7 41.5 35.9 71.4-4.2 10.7-16.4 24.8-24.3 28-1.1.4-4.1 1.7-6.5 2.8-8.8 4-24.5 5.1-33.7 2.4-17.7-5.5-31.7-19.5-37.9-38.2-2.7-8.1-2.5-22.5.4-31.1 9.4-27.9 38.4-43.4 66.1-35.3zM324.8 436.8c6.9 4.5 6.1 16-1.5 19.6-1.8.9-4.3 1.6-5.4 1.6-4.1 0-8.6-3-10.3-6.8-5-11.1 6.9-21 17.2-14.4zm63.9-.2c7 4.4 6.3 16.3-1.2 19.9-4.4 2-7.3 1.9-11.2-.5-4.1-2.5-6.2-6.6-5.7-11 1-8.9 10.4-13.2 18.1-8.4z"/><path d="M211.3 277.1c-9 4.4-13.4 11.2-13.4 20.5 0 16.5 17.6 27.7 32.3 20.5 8.7-4.2 14.4-15.1 12.8-24.3-2.7-14.5-18.9-23.1-31.7-16.7zM472.6 275.7c-1.1.3-3.7 1.6-5.7 3-14.5 9.6-12.9 31.8 2.9 39.4 16.3 8 35.4-6.8 32.1-24.7-2.4-12.8-16.1-21.1-29.3-17.7zM84.1 518.3c3 18 7 30.3 15.3 47.7 29 60.7 96.2 107.8 179.6 125.9 13 2.8 16.5 3.5 24.8 4.6 2 .3 5.1.7 6.7 1 17.8 2.7 62 2.7 78.6 0 1.3-.2 4.4-.6 6.9-.9 8.9-1.2 13.5-2.1 29.5-5.8 13.2-3 42.5-12.3 48-15.2 1.7-.9 3.3-1.6 3.7-1.6 1.4 0 22.1-10 31.2-15.1 32.9-18.5 60.9-43.5 79.3-70.9 4.6-6.8 12.4-20.1 13.3-22.5.2-.6 1.4-3.5 2.8-6.5 2.4-5.6 8.1-21.8 8.7-25.2.2-1 .6-2.1.8-2.6.3-.4.8-2.3 1.1-4.2.3-1.9.8-4.6 1.1-6 .3-1.4.8-4.5 1.1-7 .3-2.5.8-4.8 1.1-5.3.7-1.2-.8-.8-17.7 4.9-9.1 3-17.4 5.7-18.4 6-1.1.2-4.7 1.2-8 2.3-12.4 4.1-55.8 15.5-70.6 18.6-17.4 3.7-25 5.1-36.5 7.1-4.9.8-10.1 1.7-11.5 1.9-1.4.3-4.1.8-6 1.1-1.9.3-4.6.7-6 .9-1.4.3-4.7.7-7.5 1-2.7.3-8.4 1-12.5 1.5-7.2.9-14 1.7-22.5 2.5-31.8 3.1-84.6 2.4-116-1.6-12.7-1.6-14.7-1.8-20-2.4-4.7-.5-6.6-.8-14.3-2-1.7-.3-4.7-.8-6.5-1.1-1.7-.2-3.9-.6-4.7-.7-.8-.2-3.7-.7-6.5-1.1-2.7-.4-6.6-1.2-8.5-1.6-1.9-.5-5.2-1.1-7.2-1.4-2.1-.3-5.7-1-8-1.5-2.4-.6-5.4-1.2-6.8-1.5-1.4-.2-6.5-1.4-11.5-2.6-4.9-1.2-9.7-2.3-10.5-2.5-16.3-3.4-58.1-15.5-83.3-24-7.3-2.5-13.5-4.5-13.8-4.5-.3 0 .2 4.6 1.2 10.3z"/></svg>